<?xml version="1.0" encoding="utf-8"?>
<!-- Svg Vector Icons : http://www.onlinewebfonts.com/icon -->
<!DOCTYPE svg PUBLIC "-//W3C//DTD SVG 1.1//EN" "http://www.w3.org/Graphics/SVG/1.1/DTD/svg11.dtd">
<svg version="1.1" xmlns="http://www.w3.org/2000/svg" xmlns:xlink="http://www.w3.org/1999/xlink" x="0px" y="0px" viewBox="0 0 1000 1000" enable-background="new 0 0 1000 1000" xml:space="preserve">
<metadata> Svg Vector Icons : http://www.onlinewebfonts.com/icon </metadata>
<g><g transform="translate(0.000000,512.000000) scale(0.100000,-0.100000)"><path d="M435.8,4959.5C301.5,4453,102,3626.1,103.9,3580.1c0-90.2,38.4-143.9,195.7-276.3c78.7-67.2,145.8-124.7,149.6-126.6c3.8-1.9-24.9-140-61.4-307C182.5,1935.9,98.1,1199.2,100,320.5c0-640.8,23-924.8,115.1-1392.9c289.7-1490.7,1045.6-2565.1,2233.2-3171.4c717.5-368.3,1557.9-548.7,2551.7-548.7c1841.8,0,3248.1,656.1,4069.3,1897.4c435.5,656.1,702.2,1463.8,807.7,2438.5c30.7,285.9,30.7,1296.9,0,1621.2c-57.5,598.6-145.8,1164.6-264.8,1701.8l-67.1,303.1l53.7,48c28.8,24.9,94,80.6,143.9,119c107.4,88.2,153.5,161.2,153.5,241.7c0,48-207.2,913.2-331.9,1381.4l-19.2,71h-761.7c-857.6,0-926.7-7.7-1172.2-128.5c-280.1-138.1-516.1-435.5-589-746.3c-44.2-188-26.9-450.9,38.4-640.8c212.9-602.4,402.9-1465.8,502.6-2263.9c40.3-335.7,57.5-1179.9,28.8-1467.7c-126.6-1262.4-615.8-1953.1-1561.7-2204.4c-331.9-88.2-433.6-97.8-1030.3-97.8c-592.8,0-694.5,9.6-1026.4,95.9c-909.4,236-1387.1,872.9-1548.3,2062.4c-36.5,272.4-30.7,1183.7,9.6,1544.4c88.3,767.4,257.1,1567.5,466.2,2215.9c140,437.4,138.1,677.2-11.5,988.1c-130.5,272.4-356.9,472-656.1,581.3l-140,51.8l-819.2,5.8l-819.2,5.8L435.8,4959.5z M1759.6,4031c370.3-111.3,383.7-646.5,19.2-775.1c-145.8-49.9-276.3-26.9-397.1,72.9c-188,155.4-188,470,0,619.7C1496.7,4040.6,1627.2,4069.3,1759.6,4031z M8474.5,4031c99.8-30.7,207.2-122.8,249.4-216.8c74.8-165,28.8-374.1-105.5-485.4c-272.4-224.5-663.8-40.3-663.8,310.8C7954.6,3917.8,8209.8,4109.6,8474.5,4031z M1548.5,2008.8c122.8-86.3,174.6-199.5,166.9-354.9c-9.6-157.3-72.9-260.9-205.3-333.8c-184.2-97.9-414.4-44.1-533.4,128.5c-48,69.1-53.7,94-53.7,226.4c0,134.3,5.8,155.4,57.6,230.2c86.3,122.8,199.5,174.6,358.8,166.9C1444.9,2066.4,1483.3,2054.8,1548.5,2008.8z M8915.8,2008.8c122.8-86.3,174.6-199.5,166.9-356.9c-7.7-157.3-71-257.1-205.3-331.9c-184.2-97.9-414.4-44.1-533.4,128.5c-48,69.1-53.7,94-53.7,226.4c0,134.3,5.8,155.4,57.5,230.2c86.3,122.8,199.5,174.6,358.8,166.9C8812.2,2066.4,8850.6,2054.8,8915.8,2008.8z M1421.9,378c109.4-82.5,138.1-170.7,151.6-479.6c36.5-792.4,239.8-1481.2,589-1999.2c90.2-132.4,103.6-163.1,109.4-264.7c5.8-95.9,0-126.6-38.4-182.3c-71-103.6-159.2-153.5-272.4-153.5c-151.6,0-214.9,46.1-353,251.3C1187.8-1824.5,932.7-936.2,925-82.4c-1.9,312.7,0,328.1,42.2,389.5C1072.7,452.9,1281.9,485.5,1421.9,378z M8913.9,406.8c40.3-21.1,94-65.2,119-99.8c42.2-61.4,44.1-76.7,42.2-379.9c-3.8-851.8-262.9-1751.6-683-2377.1c-138.1-205.3-201.5-251.3-353-251.3c-205.3,0-354.9,186.1-310.8,389.5c9.6,40.3,59.5,138.2,111.3,214.9c345.3,512.2,552.5,1216.3,587.1,1985.7c5.8,149.6,23,291.6,38.4,337.7C8532.1,414.5,8737.4,497,8913.9,406.8z M3948.6-3209.7c287.8-69.1,648.5-105.5,1047.5-105.5c408.7,0,631.2,21.1,963.1,90.2c345.3,72.9,435.5,76.7,516.1,21.1c101.7-69.1,142-136.2,151.6-253.2c11.5-140.1-53.7-257.1-172.7-316.6c-105.5-49.9-589-145.8-884.4-176.5c-305.1-28.8-1126.2-13.5-1394.8,28.8c-308.9,49.9-596.7,122.8-673.4,172.7c-163.1,109.3-180.3,366.4-32.6,504.6C3570.7-3148.3,3668.5-3142.5,3948.6-3209.7z"/></g></g>
</svg>